<svg id="图层_1" data-name="图层 1" xmlns="http://www.w3.org/2000/svg" viewBox="0 0 419.9 417.69"><defs><style>.cls-1{fill:#1733ff;}</style></defs><path class="cls-1" d="M147,1.5Q147,3,144,3c-4.7,0-9.1,2.3-13.2,6.8C124.1,17.2,123,28,128,37.5c3.7,6.9,4.1,6.4-11,13-5.8,2.6-12.3,5.7-14.5,7-9,5.3-14.4,13.2-14.5,21.3,0,5.7,1.1,7.7,7.7,13.9l5.5,5.2-.5,5.8c-.4,3.2-.9,8.3-1.3,11.5-.5,4.8-.3,6.2,1.7,9.8,2.7,4.7,9.5,9.7,14.8,10.6,2.5.5,5,.1,8.1-1.1a37.68,37.68,0,0,1,10.6-2c5.4-.1,6.7-.6,10-3.4,4.2-3.5,14.2-8.6,18.8-9.7,2.9-.7,2.9-.6,2.2,2.7-3.7,18.5-4.6,50.9-2.1,81.6,2.8,34.1,9.9,103.1,10.7,103.7.9.8,17.9,3.6,18.7,3.2.4-.3,1.1-2.8,1.5-5.6.8-6.3,1.5-8,3.1-8,1.4,0,3.9-8.5,3-10.1-.4-.5-4.8-4.3-9.8-8.4s-10.5-8.5-12.1-9.9l-2.9-2.4,3.9-.7c7.2-1.1,14.7-2.5,15-2.8.2-.1-.1-2.2-.7-4.5A19.59,19.59,0,0,1,204.1,237c2.1-1.1,3.9-2.3,3.9-2.6s-2.9-10.1-6.5-21.8-6.7-22.4-7.1-23.9c-.7-3-1.9-3.7-9.2-5.6a22.26,22.26,0,0,1-13.3-11.7c-2.7-6.1-3.2-13.5-2-27.6,1.8-19,3.5-27.9,5.9-29.9,1.5-1.1,2.2-3.1,2.4-6.5l.3-4.8,7-1.8c6.4-1.6,7.1-1.6,8-.1.6.8,2.7,3.8,4.8,6.5,4.4,5.6,5.7,9.3,5.7,15.7,0,3.7.6,4.9,3.9,8.2,5,5.1,9.8,5.3,15.9.9,4.7-3.4,4.4-3.7,6.3,7.4a72.62,72.62,0,0,1,.6,14c-1.2,14.8-6.3,23.6-16.2,27.7l-5.6,2.3.5,5.5c.3,3.1.8,11.4,1.1,18.6s.8,16.3,1.2,20.2l.6,7.3h3.1c5.6,0,13.9,6.4,15.8,12.2.5,1.5,8.7-2.8,20.9-11.1,5.7-3.9,11.2-7.7,12.1-8.4,1.7-1.3,1.3-3.7-6.1-38.3-4.4-20.3-9.3-43.2-11-50.8s-3.1-14.4-3.1-14.8c0-1.1,6.2-1,13.9.2,11.1,1.9,14.3-.3,21.3-14,4.3-8.5,4.3-8.5,11.7-12.1,4-1.9,8.4-4.7,9.7-6.3,2.6-2.9,3.1-7.9,1.3-11.8-1.4-3.1-6.5-6.4-11.1-7.2-4.4-.8-7.7-4.4-10.2-11.2-3.5-9.3-7.9-13.4-16.1-15-2.9-.5-6.1-2.6-12-7.8C240.6,28,227,17.7,218.3,12.7c-.8-.5-.7.7.3,4,1.7,5.8,1.8,7.8,0,3.8-6.8-15.6-27.4-18.9-38.2-6.2-1.6,1.9-3.3,4.1-3.9,4.9-1.4,2-11.5,1.3-11.5-.8,0-1.6-.2-2-5.7-8.3a28,28,0,0,0-7-5.8c-1.8-.7-3.3-2-3.3-2.8S148.6,0,148,0,147,.7,147,1.5Zm26.4,20.1c1.2.5,1.6,2.1,1.6,6.8,0,7.7,2.4,13.1,8,17.8,14.5,12.4,36.6,2.3,37.1-16.9l.2-4.8.8,4.5a104.27,104.27,0,0,1,.8,13c.1,10.8-2.5,16.9-9.5,22.6-9.8,7.9-15.3,13.7-17.3,18L193,87h-7.8c-15,0-28.1-3.2-33.8-8.2-4.2-3.7-6.3-10.2-7.1-22.1l-.6-8.7h3.1a19.46,19.46,0,0,0,6.7-1.7c3.4-1.6,3.9-1.6,6.5-.1,2.2,1.2,4.4,1.5,9.2,1.1,5.9-.6,7.8-1.5,7.8-3.8-.1-.6-.6-.3-1.3.6-1.5,2-11.7,2.2-16.4.3L156.1,43l3.4-5c3.2-4.8,5.5-10.6,5.5-14.1a3.2,3.2,0,0,1,.7-2.2C166.5,20.8,171.3,20.8,173.4,21.6Z"/><path class="cls-1" d="M166.5,52l-6,.7,6.3.1c3.6.1,6.2-.2,6.2-.8s-.1-.9-.2-.8S169.8,51.6,166.5,52Z"/><path class="cls-1" d="M96,18.9c-4.1,2-11.3,5.4-15.9,7.5-6.7,3-8.1,4-6.8,4.7,3.9,2.2,27.7,11.7,27.7,11,0-.4.7-6,1.6-12.5s1.4-12.4,1.2-13.1S101.1,16.5,96,18.9Z"/><path class="cls-1" d="M375.6,52.9c-12,7.9-3.9,23.1,13.1,24.8l5.4.6-5.6,5.5c-6.9,6.7-9.5,11.6-9.5,17.8,0,8.7,6.1,16.1,15.2,18.5,3.7,1,4.6,1.7,5.5,4.6s.8,3.3-.5,3.1-2.7,6-7.9,35.7c-3.5,19.8-6.5,36.6-6.8,37.2a2.49,2.49,0,0,1-2.3,1.3c-3.1,0-10.9,5.6-13.9,10.2-2.9,4.3-5.3,9.2-5.3,10.7,0,.5,3.3.7,7.3.5l7.2-.3-6.8.8c-4.1.5-7.3,1.4-7.8,2.2-1.3,1.9-.2,9.4,2.3,15.1,2.3,5.5,9.1,12.1,15.1,14.9s15.8,2.5,22.3-.5c8.1-3.8,14.4-11.4,16-19.3.5-2.7.2-3.1-5.8-6-7.5-3.7-13-5.2-21.8-6.3-5.7-.6-5.9-.8-2-.9,6.2-.1,16.1,2.4,23.6,5.9a46,46,0,0,0,6.9,3c1.2,0-.5-10.2-2.4-14.5-1.7-3.9-6.6-9.6-10.7-12.5-2-1.5-2-1.7-.8-32.5,1.8-46.1,1.9-44.5-.9-44.5-1.8,0-2.6-.8-3.4-3.5-1-3.3-1-3.5,1.1-3.5,3.9,0,10.8-4.3,12.7-8,6-11.1-4.9-22.7-13.1-14-3.3,3.5-5.5,11.5-4.6,16.5.6,3.2.5,3.5-1.6,3.5-2.9,0-9-3.7-11.6-7a23.87,23.87,0,0,1-3.2-6.6c-2-6.7-.1-11.3,8.7-20.5a106.11,106.11,0,0,1,10.9-10c1.9-1.1,3.1-2.5,2.8-3.1s-1.3-.3-2.4.7c-1.7,1.6-1.8,1.5-1.4-2.7l.5-4.3-1.8,5-1.8,5-7.1-.1c-7.8,0-12.2-1.9-15.7-6.7-6.1-8.1,2.5-18.7,12.7-15.8,2,.5,3.6.6,3.6.1C390,50.4,379.6,50.3,375.6,52.9ZM413,100.2c1.9,2.1,2.4,4.1,2,8.3-.5,5.1-7.3,10.7-12.5,10.3-2.8-.3-3-.6-3.3-4.8C398.3,101.9,406.7,93.5,413,100.2Zm-13.7,82.1c.6,1.5-.6,9.8-1.7,11.5A3.1,3.1,0,0,1,395,195c-3,0-3.3-2.4-1.4-11.8C394.1,180.8,398.4,180,399.3,182.3Zm-16.5,40.4a10.28,10.28,0,0,1-3.5,0c-1-.3-.2-.5,1.7-.5S383.7,222.4,382.8,222.7Z"/><path class="cls-1" d="M394.6,184.2c-1.1,4.1-.7,10,.6,9.6,2.6-.9,3.9-11.8,1.4-11.8C395.9,182,395,183,394.6,184.2Z"/><path class="cls-1" d="M46,75.9A30.4,30.4,0,0,0,28.7,89.2c-2.6,4.1-2.1,5.4,3.1,9.3,9.9,7.6,23.7,12.6,40,14.5l7.7.9-7.6-.4c-14.7-.7-30.5-6.2-40.6-14.3L26,95l-.6,2.6c-1,4.1.2,14.6,2.1,18.4a32.05,32.05,0,0,0,4.8,6.7l3,3.2-8.2,34.8c-4.5,19.1-8.4,35.7-8.7,36.9-.4,1.5.1,2.3,2,3.2S23,202.7,23,205c0,2.8-.3,3-3.5,3-12,0-20,12.6-13.2,20.6,6.4,7.4,16.8-.3,18.4-13.6l.6-4.9,3.1,1.6c4.4,2.2,6.6,4.3,8.7,8.5,2.8,5.4,2.5,12.4-.6,17-2.5,3.7-16.5,14-20.7,15.3C10.3,254.2,0,264.2,0,267.9c0,1,.5.8,1.6-.9,2.8-4.2,8.7-10.1,11.7-11.6l2.7-1.5-2,3.8a19.08,19.08,0,0,0-2,7.4c0,8.9,11.8,17.7,20.7,15.5,4.3-1.1,9.3-6.8,9.3-10.7,0-7.6-6.6-14.5-16.2-17l-4.7-1.2,6.6-4.6c12.2-8.4,15.6-15.8,11.9-25.5-1.9-4.9-8.1-11.2-12.1-12.2C26,209,25,208.1,25,207a12.76,12.76,0,0,0-.6-3.4c-.4-1.1,0-1.6,1.2-1.6,1.6,0,4.3-6.4,15-34.3C52,138,54.1,133.4,56.1,132.8c1.3-.4,4.2-1.2,6.4-1.8,15.9-4.6,24.4-24.7,16.9-39.8-3.2-6.4-10-12.5-16.1-14.6C58.4,74.9,50.3,74.6,46,75.9Zm-2,61.7c1.1,1.2,1,2.5-.4,6.9-1.7,5.6-4,7.5-6.4,5.1-1.2-1.2-1.2-2.1-.2-5.2,1.4-4.6,3.7-8.4,4.9-8.4A3.87,3.87,0,0,1,44,137.6ZM22.9,215.5c-.8,6.2-3.7,11.5-7.3,13.4-8.6,4.6-14-8.7-6.3-15.6,2.9-2.7,4.3-3.1,9.8-3.2l4.6-.1ZM29.5,256c7.3,3.5,10.7,7.8,10.7,13.7,0,10.6-15.7,12.6-23.7,3.1-3.2-3.8-3.4-10.8-.5-15.6,1.7-2.7,2.6-3.2,5.7-3.2A20.94,20.94,0,0,1,29.5,256Z"/><path class="cls-1" d="M38.8,142.9c-1.6,5-1.5,6.1.7,6.1,1.2,0,4.6-9.5,3.7-10.4C41.7,137,40.2,138.5,38.8,142.9Z"/><path class="cls-1" d="M279.1,162.4c-.1.5,3.5,10.3,7.9,21.7,20.4,52.9,23.3,67.7,16.1,79.2-3.5,5.4-10.5,10.8-52.3,40.6-37.6,26.8-40.8,29.4-40.8,33.9a30.24,30.24,0,0,1-2,8.4c-1.1,2.9-1.6,5.5-1.2,5.9s7.4,3.8,15.6,7.5l14.8,6.8,2.7-3.3c2.4-2.9,2.9-3.1,5.4-2.2,4.9,1.9,12,1.2,24.9-2.3,22.8-6.3,37-12.7,64.5-29.2,22.9-13.7,35.6-25.1,41.3-37.2,1.4-2.8,3-5.2,3.6-5.2s4.8,1.5,9.2,3.4c8,3.4,8,3.4,8.5,1.3,1.1-4.6,3-23.8,2.4-24.3-.3-.3-4.5,1.2-9.4,3.5-8.7,4-8.8,4-9.5,1.8-.5-2-.6-2-.7.5-.1,2.3-1,3.2-5.7,5.6l-5.7,2.9,4.2,1.6c2.2.9,4.1,2.2,4.1,2.8,0,2.9-7.1,14-12.8,20-6.5,7-14.5,12.9-29.7,22.1-27,16.3-42.2,23.3-64.3,29.3-13.4,3.7-19.5,4.3-24.8,2.3-3-1.1-3.4-1-5.8,2l-2.7,3-13-5.9c-18.6-8.5-17.2-7.4-15.4-10.9a32.34,32.34,0,0,0,2.2-7.7c.3-2.7,1.3-5.6,2.2-6.7,2.4-2.8,17.5-14,50-37.2,16.2-11.5,31.9-23.1,34.8-25.8,12.9-11.7,13.2-21.5,1.8-55.1C293.3,197.2,279.2,160.5,279.1,162.4Z"/><path class="cls-1" d="M201.5,184.4c-3.3.5-6.1,1-6.3,1.1s3,11,7,24.2c8.4,27.4,8.4,27.3,6.6-4.7l-1.3-21.5Z"/><path class="cls-1" d="M101.2,227c-.5,1.4-3.1,7.2-5.7,13-12,26.9-18.2,46.6-17.2,55.1,1.3,11,11.2,30.2,26.4,51.5,14.8,20.7,18.6,24.4,25.1,24.4,2.7,0,4.3,1,8.2,5s5.7,7.1,9,15.6c2.3,5.9,4.3,11.4,4.5,12.3.7,3.2,2.8,7.6,3.2,6.5.2-.6-2.1-7.6-5.1-15.5s-5.6-15-5.8-15.7,5.1-4.2,13.5-8.7l13.7-7.3,2.7,4.5c4,6.9,8,19.5,10.2,32.7,1.2,6.5,2.1,12.9,2.1,14.2a4.15,4.15,0,0,0,1.1,3c1.4.8.8-3.6-2.6-21.1-2.5-12.6-5.8-22.6-9.8-29.7-1.4-2.4-2.3-4.8-2-5.5s-.7-3.4-2.1-6.2c-3.2-6.3-3.2-7.2,0-10.2,3.9-3.7,5.6-7.6,4.9-11.2-2.4-11.1-15.1-38.3-27.9-59.4-9.3-15.5-14.2-22.9-11.5-17.3.7,1.4,3.1,5.4,5.4,9,12.8,20.2,23.6,41.4,30,59.2,3.7,10.2,3.6,12.8-.8,18.2-2.1,2.4-3.7,4.9-3.7,5.5a35.61,35.61,0,0,0,2.5,6.7,41.15,41.15,0,0,1,2.3,5.9c-.2.1-7.3,3.9-15.8,8.3l-15.5,8.1-2.9-4c-2.4-3.1-3.6-3.9-6.3-3.9-6.5,0-10-2.8-19.7-16C89.2,323.8,80,305.8,80,291.9c0-9.4,5.6-26.3,17.9-53.8,2.9-6.3,5-11.9,4.7-12.5S101.8,225.6,101.2,227Z"/></svg>